<svg width="25" height="26" viewBox="0 0 25 26" fill="white" xmlns="http://www.w3.org/2000/svg">
<path fill-rule="evenodd" clip-rule="evenodd" d="M8.05851 3.90426C8.05851 3.54292 7.76559 3.25 7.40426 3.25C7.04292 3.25 6.75 3.54292 6.75 3.90426V8.90039C6.75 10.5556 7.84101 12.0121 9.36744 12.3405V23.0957C9.36744 23.4571 9.66036 23.75 10.0217 23.75C10.383 23.75 10.6759 23.4571 10.6759 23.0957V12.3403C12.2019 12.0116 13.2926 10.5553 13.2926 8.90039V3.90426C13.2926 3.54292 12.9996 3.25 12.6383 3.25C12.277 3.25 11.984 3.54292 11.984 3.90426V8.90039C11.984 9.89224 11.4161 10.6771 10.6759 10.9733V3.90426C10.6759 3.54292 10.383 3.25 10.0217 3.25C9.66036 3.25 9.36744 3.54292 9.36744 3.90426V10.9737C8.62691 10.6777 8.05851 9.89261 8.05851 8.90039V3.90426ZM19.3989 3.90426C19.3989 3.54292 19.106 3.25 18.7447 3.25C18.3282 3.25 18.0172 3.4993 17.8193 3.71894C17.6098 3.95134 17.4266 4.25947 17.264 4.60291C16.9363 5.29519 16.632 6.26154 16.371 7.41757C15.8469 9.73816 15.4734 12.9306 15.4734 16.478C15.4734 16.8393 15.7663 17.1322 16.1277 17.1322H18.0904V23.0957C18.0904 23.4571 18.3833 23.75 18.7447 23.75C19.106 23.75 19.3989 23.4571 19.3989 23.0957V3.90426ZM18.0904 15.8237H16.7863C16.8288 12.6248 17.1792 9.7788 17.6473 7.70579C17.7884 7.08113 17.9383 6.53505 18.0904 6.0754V15.8237Z" fill="white"></path>
</svg>