<svg width="25" height="26" viewBox="0 0 25 26" fill="none" xmlns="http://www.w3.org/2000/svg">
<path d="M17.193 5.06185C16.0055 3.99935 14.3389 3.41602 12.5264 3.41602C10.7139 3.41602 9.04719 3.99935 7.85969 5.06185C6.42219 6.35352 5.65136 8.29102 5.65136 10.6869C5.65136 15.916 11.6722 22.0619 11.943 22.3119C12.1097 22.4785 12.318 22.5619 12.5264 22.5619C12.7347 22.5619 12.9639 22.4785 13.1097 22.3119C13.3597 22.0619 19.4014 15.916 19.4014 10.6869C19.3805 8.29102 18.6305 6.35352 17.193 5.06185ZM12.5055 20.5202C11.943 19.8952 11.0472 18.8535 10.1722 17.6035C8.29721 14.9368 7.2972 12.5618 7.2972 10.7077C7.2972 5.49935 11.2764 5.08268 12.5055 5.08268C17.3389 5.08268 17.7139 9.39518 17.7139 10.7077C17.7139 14.3744 13.9847 18.8952 12.5055 20.5202ZM12.5055 7.02018C10.6722 7.02018 9.19303 8.54102 9.19303 10.3952C9.19303 12.2493 10.6722 13.7702 12.5055 13.7702C14.3389 13.7702 15.818 12.2493 15.818 10.3952C15.818 8.52018 14.3389 7.02018 12.5055 7.02018ZM12.5055 12.291C11.4847 12.291 10.6514 11.4369 10.6514 10.3744C10.6514 9.31185 11.4847 8.45769 12.5055 8.45769C13.5264 8.45769 14.3597 9.31185 14.3597 10.3744C14.3597 11.4369 13.5264 12.291 12.5055 12.291Z" fill="white"></path>
</svg>