<svg width="172" height="53" viewBox="0 0 172 53" fill="none" xmlns="http://www.w3.org/2000/svg">
<mask id="mask0_726:24655" style="mask-type:alpha" maskUnits="userSpaceOnUse" x="100" y="1" width="13" height="26">
<path fill-rule="evenodd" clip-rule="evenodd" d="M100.888 1.49805H112.92V26.4988H100.888V1.49805L100.888 1.49805Z" fill="white"/>
</mask>
<g mask="url(#mask0_726:24655)">
<path fill-rule="evenodd" clip-rule="evenodd" d="M108.165 1.49805V1.49805H105.44C102.93 1.49805 100.888 3.51705 100.888 5.99805C100.888 7.89605 102.077 9.55005 103.814 10.203V21.993C103.814 24.478 105.857 26.499 108.367 26.499C110.879 26.499 112.92 24.481 112.92 21.999V6.19805C112.92 3.60605 110.787 1.49805 108.165 1.49805" fill="#D71F2E"/>
</g>
<mask id="mask1_726:24655" style="mask-type:alpha" maskUnits="userSpaceOnUse" x="23" y="1" width="20" height="26">
<path fill-rule="evenodd" clip-rule="evenodd" d="M42.5204 1.49805H23.2764L23.2764 26.5008H42.5204V1.49805V1.49805Z" fill="white"/>
</mask>
<g mask="url(#mask1_726:24655)">
<path fill-rule="evenodd" clip-rule="evenodd" d="M28.032 1.49805V1.49805C25.4093 1.49805 23.2764 3.60605 23.2764 6.19805V21.801C23.2764 24.393 25.4093 26.501 28.032 26.501H37.9652C40.4786 26.501 42.5204 24.483 42.5204 22.001C42.5204 19.707 40.776 17.809 38.5288 17.536C39.5355 16.709 40.177 15.463 40.177 14.072C40.177 12.607 39.4647 11.303 38.3638 10.481C40.691 10.281 42.5204 8.34705 42.5204 5.99805C42.5204 3.51705 40.4786 1.49805 37.9672 1.49805H28.032Z" fill="#D71F2E"/>
</g>
<mask id="mask2_726:24655" style="mask-type:alpha" maskUnits="userSpaceOnUse" x="1" y="1" width="21" height="26">
<path fill-rule="evenodd" clip-rule="evenodd" d="M1 13.9994V1.49805H21.2195V26.5008H1V13.9994Z" fill="white"/>
</mask>
<g mask="url(#mask2_726:24655)">
<path fill-rule="evenodd" clip-rule="evenodd" d="M12.0968 1.49805H5.75461C3.13295 1.49805 1 3.60605 1 6.19805V21.995C1 24.483 3.04289 26.501 5.55325 26.501C8.06463 26.501 10.1075 24.483 10.1075 22.001V20.388L12.9609 24.606C13.8392 25.803 15.2163 26.499 16.6662 26.499C19.1766 26.499 21.2195 24.481 21.2195 21.999C21.2195 21.174 20.9837 20.36 20.5385 19.646C20.5284 19.627 20.5163 19.61 20.5051 19.592L18.2194 16.199C18.3702 16.058 18.5149 15.911 18.6545 15.759C20.2856 13.985 21.089 11.595 20.8593 9.20205C20.4404 4.88205 16.5914 1.49805 12.0968 1.49805" fill="#D71F2E"/>
</g>
<path fill-rule="evenodd" clip-rule="evenodd" d="M163.192 1.50586C158.253 1.50586 154.385 5.41686 154.385 10.4109V17.5949C154.385 22.5889 158.253 26.4999 163.192 26.4999C168.131 26.4999 172 22.5889 172 17.5949V10.4109C172 5.41686 168.131 1.50586 163.192 1.50586" fill="#D71F2E"/>
<path fill-rule="evenodd" clip-rule="evenodd" d="M143.495 1.50586C138.557 1.50586 134.688 5.41686 134.688 10.4109V17.5949C134.688 22.5889 138.557 26.4999 143.495 26.4999C148.434 26.4999 152.303 22.5889 152.303 17.5949V10.4109C152.303 5.41686 148.434 1.50586 143.495 1.50586" fill="#D71F2E"/>
<path fill-rule="evenodd" clip-rule="evenodd" d="M123.8 1.50586C118.861 1.50586 114.993 5.43086 114.993 10.4419V17.6259C114.993 22.6019 118.861 26.4999 123.8 26.4999C128.74 26.4999 132.608 22.5889 132.608 17.5949V10.4109C132.608 5.41686 128.74 1.50586 123.8 1.50586" fill="#D71F2E"/>
<mask id="mask3_726:24655" style="mask-type:alpha" maskUnits="userSpaceOnUse" x="44" y="1" width="27" height="26">
<path fill-rule="evenodd" clip-rule="evenodd" d="M44.5703 26.5023H70.9542V1.50977H44.5703V26.5023H44.5703Z" fill="white"/>
</mask>
<g mask="url(#mask3_726:24655)">
<path fill-rule="evenodd" clip-rule="evenodd" d="M70.9539 6.22177C70.9802 3.50977 69.1316 2.06577 67.541 1.65377C67.3356 1.59977 66.9065 1.50977 66.3541 1.50977C64.5894 1.50977 63.0818 2.39677 62.2157 3.94477C61.1573 5.82577 59.42 9.17677 57.7353 12.4268L53.3217 3.96977C53.3065 3.94077 53.2913 3.91277 53.2761 3.88577C52.3716 2.36377 50.8831 1.51177 49.1681 1.51177C48.5954 1.51177 48.1471 1.60977 47.9296 1.66777C46.3623 2.09777 44.544 3.54277 44.5713 6.20277L44.5703 22.0008C44.5703 24.4838 46.6132 26.5028 49.1236 26.5028C51.0774 26.5028 52.748 25.2798 53.3935 23.5678L53.6566 24.0638C54.5177 25.5928 56.0425 26.4928 57.7444 26.4928C59.4483 26.4928 61.0258 25.5678 61.8605 24.0798C61.8686 24.0648 61.9648 23.8828 62.1317 23.5638C62.7762 25.2768 64.4488 26.5028 66.4006 26.5028C68.912 26.5028 70.9539 24.4838 70.9539 22.0028V6.22177Z" fill="#D71F2E"/>
</g>
<mask id="mask4_726:24655" style="mask-type:alpha" maskUnits="userSpaceOnUse" x="72" y="1" width="22" height="26">
<path fill-rule="evenodd" clip-rule="evenodd" d="M72.7197 26.5031H93.5423V1.52344H72.7197L72.7197 26.5031H72.7197Z" fill="white"/>
</mask>
<g mask="url(#mask4_726:24655)">
<path fill-rule="evenodd" clip-rule="evenodd" d="M83.2135 1.52344C81.2991 1.52344 79.5537 2.72944 78.8676 4.52344L72.997 20.4784C72.8128 20.9864 72.7197 21.4974 72.7197 22.0004C72.7187 23.2044 73.1923 24.3354 74.0533 25.1864C74.9134 26.0354 76.0568 26.5034 77.273 26.5034C79.1661 26.5034 80.8792 25.3204 81.5379 23.5614L81.8009 22.8514H84.4722L84.7039 23.4974C85.3413 25.2934 87.0635 26.5034 88.989 26.5034C91.5004 26.5034 93.5423 24.4844 93.5423 22.0034C93.5423 21.5104 93.4542 21.0104 93.2792 20.5164L87.62 4.59144C86.9653 2.77344 85.2199 1.54244 83.2762 1.52344H83.2711H83.2135Z" fill="#D71F2E"/>
</g>
<path fill-rule="evenodd" clip-rule="evenodd" d="M108.164 2.49805C110.228 2.49805 111.907 4.15805 111.907 6.19805V21.999C111.907 23.93 110.319 25.499 108.366 25.499C106.414 25.499 104.825 23.93 104.825 21.993V9.44605C103.164 9.15805 101.898 7.72105 101.898 5.99805C101.898 4.06805 103.486 2.49805 105.44 2.49805H108.164" fill="white"/>
<path fill-rule="evenodd" clip-rule="evenodd" d="M28.0319 2.49805H37.9671C39.9209 2.49805 41.5085 4.06805 41.5085 5.99805C41.5085 7.92805 39.9199 9.53705 37.9671 9.53705L37.8487 9.53605H31.3709V10.538H35.6237C37.5765 10.538 39.1651 12.143 39.1651 14.072C39.1651 16.002 37.5765 17.542 35.6237 17.542H31.3709V18.542H37.9671C39.9209 18.542 41.5085 20.072 41.5085 22.001C41.5085 23.931 39.9209 25.501 37.9671 25.501H28.0319C25.9667 25.501 24.2881 23.841 24.2881 21.801V6.19805C24.2881 4.15805 25.9667 2.49805 28.0319 2.49805" fill="white"/>
<path fill-rule="evenodd" clip-rule="evenodd" d="M12.0967 2.49805C16.0762 2.49805 19.482 5.48405 19.8514 9.29605C20.0547 11.41 19.3455 13.52 17.9066 15.086C17.5909 15.428 17.2479 15.739 16.8806 16.015L19.648 20.125C19.6581 20.139 19.6682 20.155 19.6773 20.169C20.0234 20.726 20.2075 21.359 20.2075 21.999C20.2075 23.93 18.619 25.499 16.6661 25.499C15.5389 25.499 14.4684 24.957 13.8026 24.05L9.41835 17.57H9.09456L9.09557 22.001C9.09557 23.931 7.50598 25.501 5.55314 25.501C3.6003 25.501 2.01172 23.931 2.01172 22.001V6.19805C2.01172 4.15805 3.69035 2.49805 5.75449 2.49805H12.0967" fill="white"/>
<path fill-rule="evenodd" clip-rule="evenodd" d="M163.193 2.50586C167.564 2.50586 170.989 5.97786 170.989 10.4109V17.5949C170.989 22.0279 167.564 25.4999 163.193 25.4999C158.822 25.4999 155.397 22.0279 155.397 17.5949V10.4109C155.397 5.97786 158.822 2.50586 163.193 2.50586" fill="white"/>
<path fill-rule="evenodd" clip-rule="evenodd" d="M143.494 2.50586C147.866 2.50586 151.291 5.97786 151.291 10.4109V17.5949C151.291 22.0279 147.866 25.4999 143.494 25.4999C139.123 25.4999 135.699 22.0279 135.699 17.5949V10.4109C135.699 5.97786 139.123 2.50586 143.494 2.50586" fill="white"/>
<path fill-rule="evenodd" clip-rule="evenodd" d="M123.799 2.50586C128.171 2.50586 131.595 5.97786 131.595 10.4109V17.5949C131.595 22.0279 128.171 25.4999 123.799 25.4999C119.429 25.4999 116.004 22.0419 116.004 17.6259V10.4419C116.004 5.99186 119.429 2.50586 123.799 2.50586" fill="white"/>
<path fill-rule="evenodd" clip-rule="evenodd" d="M66.355 2.50977C66.7931 2.50977 67.128 2.57977 67.2858 2.62077C68.5243 2.94277 69.9632 4.07577 69.9429 6.21277V22.0028C69.9429 23.9328 68.3543 25.5028 66.4015 25.5028C64.4568 25.5028 62.8651 23.9388 62.857 22.0168C62.857 22.0168 62.8611 21.2358 62.857 20.0068C62.171 21.3158 61.6105 22.3838 61.2907 22.9938C61.0975 23.3648 60.9851 23.5798 60.976 23.5958C60.3194 24.7658 59.0819 25.4928 57.7453 25.4928C56.4147 25.4928 55.2278 24.7978 54.5529 23.5998L52.6658 20.0498V22.0028C52.6658 23.9328 51.0773 25.5028 49.1244 25.5028C47.1716 25.5028 45.583 23.9328 45.583 22.0028L45.584 6.19377C45.5628 4.09977 46.9763 2.96777 48.1976 2.63377C48.3656 2.58777 48.7146 2.51177 49.1689 2.51177C50.5147 2.51177 51.6864 3.18377 52.3825 4.35577C52.3977 4.37977 52.4109 4.40377 52.423 4.42777L57.7382 14.6138C58.0195 14.0728 58.3099 13.5128 58.6043 12.9458C60.2951 9.68277 62.0435 6.30877 63.1019 4.42877C63.7839 3.20877 64.9698 2.50977 66.355 2.50977" fill="white"/>
<path fill-rule="evenodd" clip-rule="evenodd" d="M83.2133 2.52148H83.2589H83.266C84.7888 2.53648 86.1537 3.49848 86.6657 4.92148L92.3239 20.8455C92.4615 21.2325 92.5303 21.6215 92.5303 22.0015C92.5303 23.9315 90.9428 25.5015 88.9889 25.5015C87.4924 25.5015 86.1527 24.5595 85.6579 23.1605L85.1864 21.8495H81.0925L80.5886 23.2125C80.0767 24.5815 78.7441 25.5015 77.2729 25.5015C76.3268 25.5015 75.4374 25.1375 74.7686 24.4765C74.0998 23.8145 73.7304 22.9365 73.7314 21.9995C73.7314 21.6115 73.8033 21.2165 73.948 20.8175L79.8146 4.87448C80.3519 3.46748 81.7179 2.52148 83.2133 2.52148" fill="white"/>
<path fill-rule="evenodd" clip-rule="evenodd" d="M123.8 23.9608C120.28 23.9608 117.522 21.1608 117.522 17.5868V10.4028C117.522 6.7938 120.28 3.9668 123.8 3.9668C127.32 3.9668 130.078 6.7798 130.078 10.3718V17.5558C130.078 21.1478 127.32 23.9608 123.8 23.9608" fill="#023EA5"/>
<path fill-rule="evenodd" clip-rule="evenodd" d="M143.495 23.9608C139.975 23.9608 137.218 21.1478 137.218 17.5558V10.3718C137.218 6.7798 139.975 3.9668 143.495 3.9668C147.015 3.9668 149.774 6.7798 149.774 10.3718V17.5558C149.774 21.1478 147.015 23.9608 143.495 23.9608" fill="#023EA5"/>
<path fill-rule="evenodd" clip-rule="evenodd" d="M163.192 23.9608C159.672 23.9608 156.915 21.1478 156.915 17.5558V10.3718C156.915 6.7798 159.672 3.9668 163.192 3.9668C166.713 3.9668 169.471 6.7798 169.471 10.3718V17.5558C169.471 21.1478 166.713 23.9608 163.192 23.9608" fill="#023EA5"/>
<path fill-rule="evenodd" clip-rule="evenodd" d="M7.57663 16.0378H10.2297L15.0308 23.1378C15.3981 23.6388 15.991 23.9688 16.6659 23.9688C17.783 23.9688 18.6896 23.0728 18.6896 21.9688C18.6896 21.5838 18.5753 21.2288 18.385 20.9248L14.7343 15.5028C15.5044 15.1668 16.2056 14.6728 16.7833 14.0448C17.9358 12.7918 18.5034 11.1008 18.3405 9.4068C18.0451 6.3558 15.302 3.9668 12.0965 3.9668H5.75432C4.52697 3.9668 3.5293 4.9538 3.5293 6.1668V21.9698C3.5293 23.0738 4.4359 23.9698 5.55297 23.9698C6.67003 23.9698 7.57663 23.0738 7.57663 21.9698V16.0378Z" fill="#023EA5"/>
<path fill-rule="evenodd" clip-rule="evenodd" d="M37.9669 19.9698V19.9698H29.852V16.0408H35.6235C36.7406 16.0408 37.6472 15.1458 37.6472 14.0408C37.6472 12.9358 36.7406 12.0408 35.6235 12.0408H35.6225H29.852V7.9668H37.9659H37.9669C39.084 7.9668 39.9906 7.0718 39.9906 5.9668C39.9906 4.8628 39.084 3.9668 37.9669 3.9668H28.0317C26.8044 3.9668 25.8047 4.9538 25.8047 6.1668V21.7698C25.8047 22.9828 26.8044 23.9698 28.0317 23.9698H37.9649H37.9669C39.084 23.9698 39.9906 23.0738 39.9906 21.9698C39.9906 20.8658 39.084 19.9698 37.9669 19.9698" fill="#023EA5"/>
<path fill-rule="evenodd" clip-rule="evenodd" d="M110.39 6.1668C110.39 4.9538 109.391 3.9668 108.164 3.9668H105.439C104.322 3.9668 103.415 4.8618 103.415 5.9668C103.415 7.0708 104.322 7.9668 105.439 7.9668H105.44H106.342V21.9608V21.9688C106.342 23.0728 107.249 23.9688 108.366 23.9688C109.483 23.9688 110.39 23.0728 110.39 21.9688V6.1668Z" fill="#023EA5"/>
<path fill-rule="evenodd" clip-rule="evenodd" d="M68.4251 21.9604C68.4251 23.0644 67.5185 23.9604 66.4015 23.9604C65.2864 23.9604 64.3727 23.0684 64.3677 21.9684C64.3677 21.9684 64.3727 17.9914 64.3677 13.8704C62.0536 18.2234 59.6879 22.7534 59.6485 22.8254C58.8279 24.2894 56.7374 24.3504 55.8966 22.8594L51.1481 13.9264V21.9604C51.1481 23.0644 50.2415 23.9604 49.1244 23.9604C48.0063 23.9604 47.1007 23.0644 47.1007 21.9604V6.13636C47.0855 4.53336 48.3453 4.10636 48.5982 4.03736C48.8512 3.96936 50.2546 3.69436 51.0742 5.07336L57.7381 17.8444C59.7122 14.0914 62.8752 7.87636 64.4304 5.11236C65.2186 3.70236 66.6443 3.96236 66.9003 4.02936C67.1583 4.09636 68.4403 4.51236 68.4251 6.15536V21.9604Z" fill="#023EA5"/>
<path fill-rule="evenodd" clip-rule="evenodd" d="M90.892 21.2871L85.2348 5.36413C84.9373 4.53713 84.14 3.97513 83.2516 3.96713C82.3774 3.95113 81.5568 4.50513 81.235 5.35013L75.3755 21.2761C75.2986 21.4861 75.25 21.7101 75.25 21.9471C75.249 23.0521 76.1556 23.9471 77.2737 23.9471C78.1438 23.9471 78.8795 23.4001 79.1658 22.6381L80.0329 20.2941H86.2598L87.0875 22.6051C87.3647 23.3851 88.1074 23.9461 88.9897 23.9461C90.1078 23.9461 91.0134 23.0511 91.0134 21.9461C91.0134 21.7141 90.9658 21.4951 90.892 21.2871" fill="#023EA5"/>
<path fill-rule="evenodd" clip-rule="evenodd" d="M123.799 7.9668C122.528 7.9668 121.569 9.0138 121.569 10.4028V17.5868C121.569 18.9618 122.507 19.9608 123.799 19.9608C125.092 19.9608 126.031 18.9488 126.031 17.5558V10.3718C126.031 8.9778 125.092 7.9668 123.799 7.9668" fill="white"/>
<path fill-rule="evenodd" clip-rule="evenodd" d="M143.495 7.9668C142.203 7.9668 141.265 8.9778 141.265 10.3718V17.5558C141.265 18.9488 142.203 19.9608 143.495 19.9608C144.787 19.9608 145.726 18.9488 145.726 17.5558V10.3718C145.726 8.9778 144.787 7.9668 143.495 7.9668" fill="white"/>
<path fill-rule="evenodd" clip-rule="evenodd" d="M163.192 7.9668C161.9 7.9668 160.962 8.9778 160.962 10.3718V17.5558C160.962 18.9488 161.9 19.9608 163.192 19.9608C164.484 19.9608 165.423 18.9488 165.423 17.5558V10.3718C165.423 8.9778 164.484 7.9668 163.192 7.9668" fill="white"/>
<path fill-rule="evenodd" clip-rule="evenodd" d="M7.57715 7.9668H12.097C13.2404 7.9668 14.2128 8.7668 14.3119 9.7868C14.3676 10.3698 14.1824 10.9258 13.7888 11.3548C13.3952 11.7818 12.8468 12.0348 12.179 12.0358L7.57715 12.0388V7.9668Z" fill="white"/>
<path fill-rule="evenodd" clip-rule="evenodd" d="M81.501 16.2939L83.1998 11.6699L84.839 16.2939H81.501Z" fill="white"/>
<path fill-rule="evenodd" clip-rule="evenodd" d="M123.801 18.3346C123.522 18.3346 123.295 18.1106 123.295 17.8346V10.0996C123.295 9.82361 123.522 9.59961 123.801 9.59961C124.08 9.59961 124.307 9.82361 124.307 10.0996V17.8346C124.307 18.1106 124.08 18.3346 123.801 18.3346" fill="#D71F2E"/>
<path fill-rule="evenodd" clip-rule="evenodd" d="M143.497 18.3346C143.218 18.3346 142.991 18.1106 142.991 17.8346V10.0996C142.991 9.82361 143.218 9.59961 143.497 9.59961C143.776 9.59961 144.003 9.82361 144.003 10.0996V17.8346C144.003 18.1106 143.776 18.3346 143.497 18.3346" fill="#D71F2E"/>
<path fill-rule="evenodd" clip-rule="evenodd" d="M163.193 18.3346C162.914 18.3346 162.688 18.1106 162.688 17.8346V10.0996C162.688 9.82361 162.914 9.59961 163.193 9.59961C163.473 9.59961 163.699 9.82361 163.699 10.0996V17.8346C163.699 18.1106 163.473 18.3346 163.193 18.3346" fill="#D71F2E"/>
<path fill-rule="evenodd" clip-rule="evenodd" d="M12.6254 10C12.6254 9.726 12.4018 9.504 12.1256 9.501L9.19531 9.5V10.499H12.1256C12.4018 10.496 12.6254 10.274 12.6254 10" fill="#D71F2E"/>
<path d="M9.912 46.5C9.50667 46.5 9.24 46.308 9.112 45.924L8.488 44.084H4.04L3.4 45.924C3.272 46.308 3.00533 46.5 2.6 46.5H1.976C1.77333 46.5 1.61333 46.4573 1.496 46.372C1.38933 46.276 1.336 46.148 1.336 45.988C1.336 45.9453 1.35733 45.8493 1.4 45.7L4.952 35.7C5.08 35.3267 5.352 35.14 5.768 35.14H6.776C7.192 35.14 7.464 35.3267 7.592 35.7L11.16 45.7C11.2027 45.8493 11.224 45.9453 11.224 45.988C11.224 46.148 11.1653 46.276 11.048 46.372C10.9413 46.4573 10.7867 46.5 10.584 46.5H9.912ZM4.696 42.164H7.832L6.264 37.556L4.696 42.164ZM13.3389 46.5C13.1149 46.5 12.9389 46.4413 12.8109 46.324C12.6935 46.196 12.6349 46.02 12.6349 45.796V35.844C12.6349 35.62 12.6935 35.4493 12.8109 35.332C12.9389 35.204 13.1149 35.14 13.3389 35.14H13.9149C14.1389 35.14 14.3095 35.204 14.4269 35.332C14.5549 35.4493 14.6189 35.62 14.6189 35.844V45.796C14.6189 46.02 14.5549 46.196 14.4269 46.324C14.3095 46.4413 14.1389 46.5 13.9149 46.5H13.3389ZM17.4951 46.5C17.2711 46.5 17.0951 46.4413 16.9671 46.324C16.8498 46.196 16.7911 46.02 16.7911 45.796V35.844C16.7911 35.62 16.8498 35.4493 16.9671 35.332C17.0951 35.204 17.2711 35.14 17.4951 35.14H18.0711C18.2951 35.14 18.4658 35.204 18.5831 35.332C18.7111 35.4493 18.7751 35.62 18.7751 35.844V45.796C18.7751 46.02 18.7111 46.196 18.5831 46.324C18.4658 46.4413 18.2951 46.5 18.0711 46.5H17.4951ZM25.0114 44.916C25.31 44.916 25.4594 45.124 25.4594 45.54V45.796C25.4594 46.02 25.422 46.1853 25.3474 46.292C25.2834 46.3987 25.166 46.4787 24.9954 46.532C24.7607 46.6067 24.4674 46.644 24.1154 46.644C23.3047 46.644 22.6807 46.4413 22.2434 46.036C21.8167 45.62 21.6034 44.996 21.6034 44.164V40.1H20.9154C20.6914 40.1 20.5154 40.0413 20.3874 39.924C20.27 39.796 20.2114 39.62 20.2114 39.396V39.172C20.2114 38.948 20.27 38.7773 20.3874 38.66C20.5154 38.532 20.6914 38.468 20.9154 38.468H21.6034V36.708C21.6034 36.484 21.662 36.3133 21.7794 36.196C21.9074 36.068 22.0834 36.004 22.3074 36.004H22.8834C23.1074 36.004 23.278 36.068 23.3954 36.196C23.5234 36.3133 23.5874 36.484 23.5874 36.708V38.468H24.6914C24.9154 38.468 25.086 38.532 25.2034 38.66C25.3314 38.7773 25.3954 38.948 25.3954 39.172V39.396C25.3954 39.62 25.3314 39.796 25.2034 39.924C25.086 40.0413 24.9154 40.1 24.6914 40.1H23.5874V43.796C23.5874 44.18 23.6727 44.468 23.8434 44.66C24.0247 44.8413 24.2594 44.932 24.5474 44.932L25.0114 44.916ZM27.7615 46.5C27.5375 46.5 27.3615 46.4413 27.2335 46.324C27.1162 46.196 27.0575 46.02 27.0575 45.796V39.172C27.0575 38.948 27.1162 38.7773 27.2335 38.66C27.3615 38.532 27.5375 38.468 27.7615 38.468H28.3375C28.5615 38.468 28.7322 38.532 28.8495 38.66C28.9775 38.7773 29.0415 38.948 29.0415 39.172V45.796C29.0415 46.02 28.9775 46.196 28.8495 46.324C28.7322 46.4413 28.5615 46.5 28.3375 46.5H27.7615ZM28.0495 37.22C27.7188 37.22 27.4362 37.1133 27.2015 36.9C26.9775 36.676 26.8655 36.3987 26.8655 36.068C26.8655 35.7373 26.9775 35.4653 27.2015 35.252C27.4362 35.028 27.7188 34.916 28.0495 34.916C28.3802 34.916 28.6575 35.028 28.8815 35.252C29.1162 35.4653 29.2335 35.7373 29.2335 36.068C29.2335 36.3987 29.1162 36.676 28.8815 36.9C28.6575 37.1133 28.3802 37.22 28.0495 37.22ZM36.1563 35.844C36.1563 35.62 36.2149 35.4493 36.3323 35.332C36.4603 35.204 36.6363 35.14 36.8603 35.14H37.4363C37.6603 35.14 37.8309 35.204 37.9483 35.332C38.0763 35.4493 38.1403 35.62 38.1403 35.844V45.796C38.1403 46.02 38.0763 46.196 37.9483 46.324C37.8309 46.4413 37.6603 46.5 37.4363 46.5H36.9883C36.7643 46.5 36.5883 46.4627 36.4603 46.388C36.3429 46.3027 36.2843 46.1853 36.2843 46.036V45.572C36.0176 45.9453 35.6923 46.228 35.3083 46.42C34.9243 46.612 34.5029 46.708 34.0443 46.708C33.3616 46.708 32.7696 46.532 32.2682 46.18C31.7669 45.8173 31.3829 45.316 31.1163 44.676C30.8496 44.036 30.7163 43.3053 30.7163 42.484C30.7163 41.6627 30.8496 40.932 31.1163 40.292C31.3829 39.652 31.7669 39.156 32.2682 38.804C32.7696 38.4413 33.3616 38.26 34.0443 38.26C34.9083 38.26 35.6123 38.5907 36.1563 39.252V35.844ZM34.4123 44.884C34.8069 44.884 35.1536 44.7773 35.4523 44.564C35.7616 44.34 35.9963 44.0413 36.1563 43.668V41.3C35.9963 40.9267 35.7616 40.6333 35.4523 40.42C35.1536 40.196 34.8069 40.084 34.4123 40.084C33.8683 40.084 33.4469 40.3027 33.1483 40.74C32.8496 41.1773 32.7003 41.7587 32.7003 42.484C32.7003 43.2093 32.8496 43.7907 33.1483 44.228C33.4469 44.6653 33.8683 44.884 34.4123 44.884ZM44.3545 46.5C44.1305 46.5 43.9545 46.4413 43.8265 46.324C43.7092 46.196 43.6505 46.02 43.6505 45.796V35.844C43.6505 35.62 43.7092 35.4493 43.8265 35.332C43.9545 35.204 44.1305 35.14 44.3545 35.14H44.9305C45.1545 35.14 45.3252 35.204 45.4425 35.332C45.5705 35.4493 45.6345 35.62 45.6345 35.844V45.796C45.6345 46.02 45.5705 46.196 45.4425 46.324C45.3252 46.4413 45.1545 46.5 44.9305 46.5H44.3545ZM50.6868 38.244C51.7214 38.244 52.5321 38.5107 53.1188 39.044C53.7054 39.5667 53.9988 40.2867 53.9988 41.204V45.796C53.9988 46.02 53.9348 46.196 53.8068 46.324C53.6894 46.4413 53.5188 46.5 53.2948 46.5H52.8468C52.6228 46.5 52.4468 46.4413 52.3188 46.324C52.2014 46.196 52.1428 46.02 52.1428 45.796V45.588C51.9294 45.9293 51.6414 46.1907 51.2788 46.372C50.9161 46.5533 50.5001 46.644 50.0308 46.644C49.2734 46.644 48.6334 46.4253 48.1108 45.988C47.5988 45.5507 47.3428 44.9427 47.3428 44.164C47.3428 43.3747 47.6201 42.756 48.1748 42.308C48.7294 41.8493 49.4441 41.62 50.3188 41.62C50.9694 41.62 51.5454 41.7533 52.0468 42.02V41.364C52.0468 40.9587 51.9188 40.6387 51.6628 40.404C51.4068 40.1587 51.0601 40.036 50.6228 40.036C50.1748 40.036 49.7268 40.2173 49.2788 40.58C49.0761 40.7507 48.8894 40.836 48.7188 40.836C48.6014 40.836 48.4628 40.788 48.3028 40.692L48.0148 40.5C47.7694 40.3507 47.6468 40.164 47.6468 39.94C47.6468 39.812 47.6948 39.6787 47.7908 39.54C48.0894 39.1347 48.4948 38.82 49.0068 38.596C49.5294 38.3613 50.0894 38.244 50.6868 38.244ZM50.5748 45.076C51.2041 45.076 51.6948 44.8573 52.0468 44.42V43.412C51.6521 43.1773 51.1828 43.06 50.6388 43.06C50.2441 43.06 49.9241 43.1507 49.6788 43.332C49.4441 43.5133 49.3268 43.764 49.3268 44.084C49.3268 44.3827 49.4388 44.6227 49.6628 44.804C49.8868 44.9853 50.1908 45.076 50.5748 45.076ZM60.5264 39.044C60.6544 38.66 60.921 38.468 61.3264 38.468H61.8704C62.073 38.468 62.2277 38.516 62.3344 38.612C62.4517 38.708 62.5104 38.836 62.5104 38.996C62.5104 39.0387 62.489 39.1347 62.4464 39.284L60.0144 45.94C59.8757 46.3133 59.609 46.5 59.2144 46.5H58.5104C58.1157 46.5 57.849 46.3133 57.7104 45.94L55.2944 39.284C55.2517 39.1347 55.2304 39.0387 55.2304 38.996C55.2304 38.836 55.2837 38.708 55.3904 38.612C55.5077 38.516 55.6677 38.468 55.8704 38.468H56.4624C56.8677 38.468 57.1344 38.66 57.2624 39.044L58.8944 43.78L60.5264 39.044ZM67.0198 38.26C68.0971 38.26 68.9238 38.6173 69.4998 39.332C70.0758 40.036 70.3638 40.98 70.3638 42.164C70.3638 42.3987 70.2998 42.58 70.1718 42.708C70.0544 42.836 69.8784 42.9 69.6438 42.9H65.4038C65.4678 43.508 65.6491 43.9933 65.9478 44.356C66.2464 44.708 66.6464 44.884 67.1478 44.884C67.6384 44.884 68.0651 44.7027 68.4278 44.34C68.6518 44.116 68.8544 44.004 69.0358 44.004C69.1424 44.004 69.2704 44.0467 69.4198 44.132L69.7238 44.324C69.9798 44.4733 70.1078 44.6653 70.1078 44.9C70.1078 45.0493 70.0544 45.1987 69.9478 45.348C69.3184 46.2547 68.3904 46.708 67.1638 46.708C66.4064 46.708 65.7398 46.532 65.1638 46.18C64.5984 45.8173 64.1611 45.316 63.8518 44.676C63.5531 44.036 63.4038 43.3053 63.4038 42.484C63.4038 41.6733 63.5584 40.948 63.8678 40.308C64.1878 39.6573 64.6198 39.156 65.1638 38.804C65.7184 38.4413 66.3371 38.26 67.0198 38.26ZM67.0038 39.924C66.6091 39.924 66.2784 40.0627 66.0118 40.34C65.7558 40.6067 65.5798 40.9853 65.4838 41.476H68.4438C68.4011 40.996 68.2624 40.6173 68.0278 40.34C67.8038 40.0627 67.4624 39.924 67.0038 39.924ZM79.4489 38.26C80.1315 38.26 80.7235 38.4413 81.2249 38.804C81.7262 39.156 82.1102 39.652 82.3769 40.292C82.6435 40.932 82.7769 41.6627 82.7769 42.484C82.7769 43.3053 82.6435 44.036 82.3769 44.676C82.1102 45.316 81.7262 45.8173 81.2249 46.18C80.7235 46.532 80.1315 46.708 79.4489 46.708C78.5849 46.708 77.8809 46.3773 77.3369 45.716V48.356C77.3369 48.58 77.2729 48.7507 77.1449 48.868C77.0275 48.996 76.8569 49.06 76.6329 49.06H76.0569C75.8329 49.06 75.6569 48.996 75.5289 48.868C75.4115 48.7507 75.3529 48.58 75.3529 48.356V39.172C75.3529 38.948 75.4115 38.7773 75.5289 38.66C75.6569 38.532 75.8329 38.468 76.0569 38.468H76.5049C76.7289 38.468 76.8995 38.532 77.0169 38.66C77.1449 38.7773 77.2089 38.948 77.2089 39.172V39.396C77.4755 39.0227 77.8009 38.74 78.1849 38.548C78.5689 38.356 78.9902 38.26 79.4489 38.26ZM79.0809 44.884C79.6249 44.884 80.0462 44.6653 80.3449 44.228C80.6435 43.7907 80.7929 43.2093 80.7929 42.484C80.7929 41.7587 80.6435 41.1773 80.3449 40.74C80.0462 40.3027 79.6249 40.084 79.0809 40.084C78.6862 40.084 78.3342 40.196 78.0249 40.42C77.7262 40.6333 77.4969 40.9267 77.3369 41.3V43.668C77.4969 44.0413 77.7262 44.34 78.0249 44.564C78.3342 44.7773 78.6862 44.884 79.0809 44.884ZM88.5118 38.42C88.7678 38.42 88.9384 38.4733 89.0238 38.58C89.1198 38.6867 89.1678 38.8627 89.1678 39.108V39.828C89.1678 40.244 88.9331 40.4787 88.4638 40.532C87.9731 40.596 87.5411 40.7667 87.1678 41.044C86.8051 41.3107 86.5438 41.6627 86.3838 42.1V45.796C86.3838 46.02 86.3198 46.196 86.1918 46.324C86.0744 46.4413 85.9038 46.5 85.6798 46.5H85.1038C84.8798 46.5 84.7038 46.4413 84.5758 46.324C84.4584 46.196 84.3997 46.02 84.3997 45.796V39.172C84.3997 38.948 84.4584 38.7773 84.5758 38.66C84.7038 38.532 84.8798 38.468 85.1038 38.468H85.5838C85.8078 38.468 85.9784 38.532 86.0958 38.66C86.2238 38.7773 86.2878 38.948 86.2878 39.172V40.132C86.5011 39.5987 86.7998 39.1827 87.1838 38.884C87.5678 38.5747 88.0104 38.42 88.5118 38.42ZM91.2303 46.5C91.0063 46.5 90.8303 46.4413 90.7023 46.324C90.5849 46.196 90.5263 46.02 90.5263 45.796V39.172C90.5263 38.948 90.5849 38.7773 90.7023 38.66C90.8303 38.532 91.0063 38.468 91.2303 38.468H91.8063C92.0303 38.468 92.2009 38.532 92.3183 38.66C92.4463 38.7773 92.5103 38.948 92.5103 39.172V45.796C92.5103 46.02 92.4463 46.196 92.3183 46.324C92.2009 46.4413 92.0303 46.5 91.8063 46.5H91.2303ZM91.5182 37.22C91.1876 37.22 90.9049 37.1133 90.6703 36.9C90.4463 36.676 90.3343 36.3987 90.3343 36.068C90.3343 35.7373 90.4463 35.4653 90.6703 35.252C90.9049 35.028 91.1876 34.916 91.5182 34.916C91.8489 34.916 92.1263 35.028 92.3503 35.252C92.5849 35.4653 92.7023 35.7373 92.7023 36.068C92.7023 36.3987 92.5849 36.676 92.3503 36.9C92.1263 37.1133 91.8489 37.22 91.5182 37.22ZM94.761 44.564C94.9103 44.436 95.049 44.372 95.177 44.372C95.305 44.372 95.4863 44.452 95.721 44.612C96.1263 44.9107 96.5317 45.06 96.937 45.06C97.2463 45.06 97.481 44.9907 97.641 44.852C97.8117 44.7133 97.897 44.532 97.897 44.308C97.897 44.0947 97.817 43.9133 97.657 43.764C97.497 43.604 97.2197 43.4493 96.825 43.3L96.457 43.156C95.7957 42.9 95.273 42.6013 94.889 42.26C94.505 41.908 94.313 41.412 94.313 40.772C94.313 40.0467 94.569 39.4493 95.081 38.98C95.593 38.5 96.281 38.26 97.145 38.26C98.0197 38.26 98.7237 38.4947 99.257 38.964C99.4063 39.1027 99.481 39.252 99.481 39.412C99.481 39.5933 99.385 39.7693 99.193 39.94L99.001 40.116C98.8517 40.2547 98.7077 40.324 98.569 40.324C98.4517 40.324 98.2757 40.26 98.041 40.132C97.7423 39.972 97.433 39.892 97.113 39.892C96.8357 39.892 96.6223 39.956 96.473 40.084C96.3237 40.2013 96.249 40.3613 96.249 40.564C96.249 40.7453 96.3237 40.9 96.473 41.028C96.633 41.1453 96.889 41.2733 97.241 41.412L97.609 41.556C98.2917 41.8227 98.825 42.148 99.209 42.532C99.6037 42.916 99.801 43.4333 99.801 44.084C99.801 44.852 99.5397 45.4813 99.017 45.972C98.4943 46.452 97.785 46.692 96.889 46.692C95.865 46.692 95.0437 46.3827 94.425 45.764C94.2863 45.6253 94.217 45.476 94.217 45.316C94.217 45.124 94.313 44.948 94.505 44.788L94.761 44.564ZM104.489 38.26C105.566 38.26 106.393 38.6173 106.969 39.332C107.545 40.036 107.833 40.98 107.833 42.164C107.833 42.3987 107.769 42.58 107.641 42.708C107.523 42.836 107.347 42.9 107.113 42.9H102.873C102.937 43.508 103.118 43.9933 103.417 44.356C103.715 44.708 104.115 44.884 104.617 44.884C105.107 44.884 105.534 44.7027 105.897 44.34C106.121 44.116 106.323 44.004 106.505 44.004C106.611 44.004 106.739 44.0467 106.889 44.132L107.193 44.324C107.449 44.4733 107.577 44.6653 107.577 44.9C107.577 45.0493 107.523 45.1987 107.417 45.348C106.787 46.2547 105.859 46.708 104.633 46.708C103.875 46.708 103.209 46.532 102.633 46.18C102.067 45.8173 101.63 45.316 101.321 44.676C101.022 44.036 100.873 43.3053 100.873 42.484C100.873 41.6733 101.027 40.948 101.337 40.308C101.657 39.6573 102.089 39.156 102.633 38.804C103.187 38.4413 103.806 38.26 104.489 38.26ZM104.473 39.924C104.078 39.924 103.747 40.0627 103.481 40.34C103.225 40.6067 103.049 40.9853 102.953 41.476H105.913C105.87 40.996 105.731 40.6173 105.497 40.34C105.273 40.0627 104.931 39.924 104.473 39.924ZM113.574 38.42C113.83 38.42 114.001 38.4733 114.086 38.58C114.182 38.6867 114.23 38.8627 114.23 39.108V39.828C114.23 40.244 113.996 40.4787 113.526 40.532C113.036 40.596 112.604 40.7667 112.23 41.044C111.868 41.3107 111.606 41.6627 111.446 42.1V45.796C111.446 46.02 111.382 46.196 111.254 46.324C111.137 46.4413 110.966 46.5 110.742 46.5H110.166C109.942 46.5 109.766 46.4413 109.638 46.324C109.521 46.196 109.462 46.02 109.462 45.796V39.172C109.462 38.948 109.521 38.7773 109.638 38.66C109.766 38.532 109.942 38.468 110.166 38.468H110.646C110.87 38.468 111.041 38.532 111.158 38.66C111.286 38.7773 111.35 38.948 111.35 39.172V40.132C111.564 39.5987 111.862 39.1827 112.246 38.884C112.63 38.5747 113.073 38.42 113.574 38.42Z" fill="white"/>
<path d="M1 51.5H37.5" stroke="#D71F2E" stroke-width="2" stroke-linecap="round"/>
</svg>
