<svg width="24" height="24" viewBox="0 0 24 24" fill="none" xmlns="http://www.w3.org/2000/svg">
    <path d="M7.90137 16.0202L15.8337 8.08789" stroke="white" stroke-width="1.38" stroke-linecap="round" stroke-linejoin="round"></path>
    <path fill-rule="evenodd" clip-rule="evenodd" d="M10.3799 9.0791C10.3799 9.90059 9.71357 10.5664 8.89258 10.5664C8.07159 10.5664 7.40527 9.90059 7.40527 9.0791C7.40527 8.25811 8.07159 7.5918 8.89258 7.5918C9.71357 7.5918 10.3799 8.25811 10.3799 9.0791V9.0791Z" stroke="white" stroke-width="1.38" stroke-linecap="round" stroke-linejoin="round"></path>
    <path fill-rule="evenodd" clip-rule="evenodd" d="M16.3291 15.0283C16.3291 15.8498 15.6628 16.5156 14.8418 16.5156C14.0208 16.5156 13.3545 15.8498 13.3545 15.0283C13.3545 14.2073 14.0208 13.541 14.8418 13.541C15.6628 13.541 16.3291 14.2073 16.3291 15.0283V15.0283Z" stroke="white" stroke-width="1.38" stroke-linecap="round" stroke-linejoin="round"></path>
    <path fill-rule="evenodd" clip-rule="evenodd" d="M20.971 12.0001C20.971 17.0583 16.8708 21.1585 11.8126 21.1585C6.75524 21.1585 2.6543 17.0583 2.6543 12.0001C2.6543 6.94234 6.75524 2.8418 11.8126 2.8418C16.8708 2.8418 20.971 6.94234 20.971 12.0001V12.0001Z" stroke="white" stroke-width="1.38" stroke-linejoin="round"></path>
</svg>